<svg id="Layer_1" data-name="Layer 1" xmlns="http://www.w3.org/2000/svg" viewBox="0 0 165 182.51"><defs><style>.cls-1{fill:none;stroke:#010101;stroke-linecap:round;stroke-linejoin:round;stroke-width:4.65px;}.cls-2{fill:#1c1c1b;}</style></defs><title>Artboard 1</title><path class="cls-1" d="M63.93,3.79c6,4.91,9.41,14.78,2.93,26.73-4.43,8.18-5.33,13.8-3.23,20.25"/><path class="cls-1" d="M51.8,15.07c2.28,2.81,2.83,7.07.33,11.66s-.06,5.17-.06,5.17"/><path class="cls-1" d="M79.15,54.07c3.35-4,4.21-10.15.69-16.82s0-7.46,0-7.46"/><path class="cls-2" d="M61.83,126.34q.42-1.09.79-2t.5-1.31q-.17.37-.61,1.4t-.88,2.18q-.44,1.15-.8,2.12a6.27,6.27,0,0,0-.36,1.13q.13-.41.52-1.4T61.83,126.34Z"/><path class="cls-2" d="M61.49,120.78l-1.24,0,.33,0,.62.07.68,0h.51A3,3,0,0,0,61.49,120.78Z"/><path class="cls-2" d="M24.32,136.53a8.61,8.61,0,0,1,1.79-.28,6.38,6.38,0,0,1,2.06.24,5.16,5.16,0,0,0-1.62-.42,6.25,6.25,0,0,0-1.75.07,5.55,5.55,0,0,0-1.57.53,2.94,2.94,0,0,0-1.08.9,3.61,3.61,0,0,1,.79-.51A6.89,6.89,0,0,1,24.32,136.53Z"/><path class="cls-2" d="M59.35,121.32l.31,0,.51.07.54,0a1.24,1.24,0,0,0,.37,0l-.91-.09A4.14,4.14,0,0,0,59.35,121.32Z"/><path class="cls-2" d="M77.07,119.33a5.74,5.74,0,0,0,1.15-.16l-.37,0-.62,0-.64,0-.43,0A2.63,2.63,0,0,0,77.07,119.33Z"/><path class="cls-2" d="M41.2,125.6q.54-1.09,1.08-2.28t1-2.32q.46-1.13.8-2.07a8.68,8.68,0,0,0,.42-1.52q-.21.62-.69,1.87t-1.17,2.83q-.69,1.58-1.52,3.37t-1.71,3.43q.29-.49.77-1.35T41.2,125.6Z"/><path class="cls-2" d="M70.81,126.07l.44-1.19q.23-.64.44-1.17a2.91,2.91,0,0,0,.21-.66q-.08.25-.33.84t-.48,1.23q-.23.64-.4,1.13c-.11.33-.15.51-.13.53S70.67,126.44,70.81,126.07Z"/><path class="cls-2" d="M62.65,126.74q0-.16.25-.72l.44-1.19q.23-.64.44-1.17A2.91,2.91,0,0,0,64,123q-.08.25-.33.84t-.48,1.23q-.23.64-.4,1.13C62.66,126.53,62.62,126.71,62.65,126.74Z"/><path class="cls-2" d="M52.43,127.77a1.68,1.68,0,0,0-.66-.35,2.28,2.28,0,0,0-.86-.09,1.16,1.16,0,0,0-.78.41,3.77,3.77,0,0,0-.35.55q-.27.47-.67,1.21t-.85,1.68q-.46.94-.88,1.93.67-1.48,1.36-2.71a12.56,12.56,0,0,1,1.06-1.68q-.13.29-.54,1t-.92,1.79q-.5,1-1,2.2T46.49,136a9.53,9.53,0,0,0-.42,1.85,1.24,1.24,0,0,0,.24,1.09q.74.42,2.38-2.31a61.43,61.43,0,0,0,3.9-8.4Q52.68,128,52.43,127.77Z"/><path class="cls-2" d="M47.56,130.33q.54-1,.79-1.42a8.46,8.46,0,0,0-.91,1.44q-.58,1.07-1.17,2.42a24,24,0,0,0-1,2.79,9.43,9.43,0,0,0-.43,2.55,13.42,13.42,0,0,1,.59-2.67q.46-1.44,1-2.75T47.56,130.33Z"/><path class="cls-2" d="M71.5,118.91l.07-.18-.72.23A3.93,3.93,0,0,0,71.5,118.91Z"/><path class="cls-2" d="M26.93,137a3.81,3.81,0,0,0-.76-.15,3.28,3.28,0,0,0-.95.06,2.13,2.13,0,0,0-.93.43,9.64,9.64,0,0,1,1.13-.22,5.08,5.08,0,0,1,2,.11A1.15,1.15,0,0,0,26.93,137Z"/><path class="cls-2" d="M70.42,124.44q-.44,1-.88,2.18t-.8,2.12a6.27,6.27,0,0,0-.36,1.13q.13-.41.52-1.4t.82-2.07q.42-1.09.79-2c.21-.54.36-.92.46-1.18h0Z"/><path class="cls-2" d="M48.64,137.73q-.44.66-.87,1.19a1.92,1.92,0,0,1-.68.61,2.16,2.16,0,0,0,.74-.55,8.48,8.48,0,0,0,.83-1,9.77,9.77,0,0,0,.75-1.27,7.34,7.34,0,0,0,.5-1.29,7.4,7.4,0,0,1-.48,1Q49.08,137.07,48.64,137.73Z"/><path class="cls-2" d="M85.9,128.12a3.4,3.4,0,0,0-.26-1.46,2.31,2.31,0,0,0-.67-.87,1.88,1.88,0,0,0-.9-.38,4.42,4.42,0,0,0-.95,0,2.91,2.91,0,0,1,1.81.57A2.73,2.73,0,0,1,85.9,128.12Z"/><path class="cls-2" d="M24.78,138.49l.87-.18a3.59,3.59,0,0,1,1.15,0,3.07,3.07,0,0,0-1-.13A1.37,1.37,0,0,0,24.78,138.49Z"/><path class="cls-2" d="M24.69,139a3.17,3.17,0,0,0-1.9,1.12,1.63,1.63,0,0,0-.3,1.58,1.46,1.46,0,0,1,.07-.66,2,2,0,0,1,.19-.41,1.82,1.82,0,0,0,.5,1.71,3.38,3.38,0,0,0,1.62.85,8.52,8.52,0,0,0,2.06,0,5.09,5.09,0,0,0,2.17-.81,10.77,10.77,0,0,0,2.17-1.88,16,16,0,0,0-3.18-1.44A6.07,6.07,0,0,0,24.69,139Z"/><path class="cls-2" d="M97.76,128.32a.61.61,0,0,0-.29-.37,2.2,2.2,0,0,0-.6-.27,6.67,6.67,0,0,0-.7-.17,3.51,3.51,0,0,0-.6-.07,4.88,4.88,0,0,1,1.64.44A1.48,1.48,0,0,1,97.76,128.32Z"/><path class="cls-2" d="M95.79,127.69a5.51,5.51,0,0,1,.9.31,2.23,2.23,0,0,1,.82.56q.08-.25-.43-.52A3.66,3.66,0,0,0,95.79,127.69Z"/><path class="cls-2" d="M85.07,102.74a2.4,2.4,0,0,0,1.69.62,2.57,2.57,0,0,0,1.6-.64,2.23,2.23,0,0,0,.71-1.78l.06-9.06.06-9.42a2.2,2.2,0,0,0-.71-1.9,2.44,2.44,0,0,0-1.71-.6,2.25,2.25,0,0,0-.88.17,2.31,2.31,0,0,0-.75.49,2.43,2.43,0,0,0-.52.81,2.35,2.35,0,0,0-.16,1.08q-.06,2.43-.07,4.76l0,4.76-.05,8.79A2.34,2.34,0,0,0,85.07,102.74Z"/><path class="cls-2" d="M62.82,129.93q-1.32,2.89-2,4.81a15.89,15.89,0,0,0-.86,2.92q-.15,1,.14,1.26a1,1,0,0,0,1.15,0,6.18,6.18,0,0,0,1.41-1.14A15,15,0,0,0,64.1,136q.73-1,1.35-2t1.06-1.74l.15-.25q.32-1,.71-2.11,1-2.9,2.4-6.47L66.13,123Q64.13,127,62.82,129.93Z"/><path class="cls-2" d="M95.91,128.18a3.48,3.48,0,0,1,1,.6,1.73,1.73,0,0,1,.59,1.05q.09-.82-.94-1.45a4.64,4.64,0,0,0-2.55-.59,5.82,5.82,0,0,1,.74.09A6.1,6.1,0,0,1,95.91,128.18Z"/><path class="cls-2" d="M96.36,135.39q0,.41.06.95a5.94,5.94,0,0,1-.07,1.09,4.09,4.09,0,0,1-.29,1,1.61,1.61,0,0,1-.58.72,1.12,1.12,0,0,0,.66-.72,4.72,4.72,0,0,0,.28-1.17,6.6,6.6,0,0,0,0-1.15Q96.4,135.6,96.36,135.39Z"/><path class="cls-2" d="M95.56,135.18A6.3,6.3,0,0,0,93.79,132a3,3,0,0,0-.94-.66q.08,0,.61.46a5.22,5.22,0,0,1,1.06,1.2,6.73,6.73,0,0,1,.85,1.9,5.14,5.14,0,0,1,0,2.51A4.14,4.14,0,0,0,95.56,135.18Z"/><path class="cls-2" d="M95.53,133.39a5.19,5.19,0,0,1,.32.78,6.53,6.53,0,0,1,.22.89,4.49,4.49,0,0,1,.08.78,3.29,3.29,0,0,0,0-.89,6.33,6.33,0,0,0-.22-.91,3.12,3.12,0,0,0-.35-.74,1.23,1.23,0,0,0-.45-.44A1.38,1.38,0,0,1,95.53,133.39Z"/><path class="cls-2" d="M47.92,102.51a2.4,2.4,0,0,0,1.69.62,2.57,2.57,0,0,0,1.6-.64,2.23,2.23,0,0,0,.71-1.78L52,91.65,52,82.23a2.2,2.2,0,0,0-.71-1.9,2.44,2.44,0,0,0-1.71-.6,2.25,2.25,0,0,0-.88.17,2.31,2.31,0,0,0-.75.49,2.43,2.43,0,0,0-.52.81,2.35,2.35,0,0,0-.16,1.08q-.06,2.43-.07,4.76l0,4.76-.05,8.79A2.34,2.34,0,0,0,47.92,102.51Z"/><path class="cls-2" d="M83.17,127.67a1.72,1.72,0,0,1,.83,1.55,1.57,1.57,0,0,0-.08-1.13,1.57,1.57,0,0,0-1.58-.9,1.54,1.54,0,0,0-.93.41A2.19,2.19,0,0,1,83.17,127.67Z"/><path class="cls-2" d="M81.58,128.59a1.37,1.37,0,0,1,.84.13.88.88,0,0,1,.47.91,1.12,1.12,0,0,0-.28-.85A.91.91,0,0,0,81.58,128.59Z"/><path class="cls-2" d="M66.5,102.63a2.4,2.4,0,0,0,1.69.62,2.57,2.57,0,0,0,1.6-.64,2.23,2.23,0,0,0,.71-1.78l.06-9.06.06-9.42a2.2,2.2,0,0,0-.71-1.9,2.44,2.44,0,0,0-1.71-.6,2.25,2.25,0,0,0-.88.17,2.31,2.31,0,0,0-.75.49,2.43,2.43,0,0,0-.52.81,2.35,2.35,0,0,0-.16,1.08q-.06,2.43-.07,4.76l0,4.76-.05,8.79A2.34,2.34,0,0,0,66.5,102.63Z"/><path class="cls-2" d="M130.12,73.51a31.26,31.26,0,0,0-7.32.83l.08-13.55L5.44,60.05l-.37,60.23h0a58.72,58.72,0,0,0,115.57,14.22,31.2,31.2,0,1,0,9.47-61ZM79.89,92l.06-10.32a5.48,5.48,0,0,1,.69-2.59,6.13,6.13,0,0,1,1.61-1.84,7.08,7.08,0,0,1,2.17-1.11,7.73,7.73,0,0,1,2.37-.37,8.39,8.39,0,0,1,2.39.38,6.68,6.68,0,0,1,2.18,1.12A6.34,6.34,0,0,1,93,79.15a5.47,5.47,0,0,1,.68,2.62l-.06,10.05-.06,9.24a6.08,6.08,0,0,1-.6,2.75,5.88,5.88,0,0,1-1.57,2,6.84,6.84,0,0,1-2.22,1.18,8,8,0,0,1-5,0A6.61,6.61,0,0,1,82,105.7a6,6,0,0,1-1.52-2,6.07,6.07,0,0,1-.57-2.75q0-2.48,0-4.64Zm6.84,35.79a3.24,3.24,0,0,1,.12,1.05,7.06,7.06,0,0,1-.24,1.65,9.43,9.43,0,0,1-.75,2,8.16,8.16,0,0,1-1.43,2,14.48,14.48,0,0,0,1.73-3.2A8.45,8.45,0,0,0,86.73,127.79ZM61.31,91.89l.06-10.32A5.48,5.48,0,0,1,62.07,79a6.13,6.13,0,0,1,1.61-1.84A7.08,7.08,0,0,1,65.85,76a7.73,7.73,0,0,1,2.37-.37,8.39,8.39,0,0,1,2.39.38,6.68,6.68,0,0,1,2.18,1.12A6.34,6.34,0,0,1,74.4,79a5.47,5.47,0,0,1,.68,2.62L75,91.7,75,100.95a6.08,6.08,0,0,1-.6,2.75,5.88,5.88,0,0,1-1.57,2,6.84,6.84,0,0,1-2.22,1.18,8,8,0,0,1-5,0,6.61,6.61,0,0,1-2.16-1.21,6,6,0,0,1-1.52-2,6.07,6.07,0,0,1-.57-2.75q0-2.48,0-4.64Zm-4.82,28.59s.06,0,.06,0,0,.08-.06.08-.06,0-.06-.08S56.45,120.48,56.49,120.48Zm-.37-.21c-.12,0-.17,0-.14-.12s.1-.15.23-.12a.54.54,0,0,1,.27.12A1.46,1.46,0,0,1,56.12,120.28ZM42.74,91.77l.06-10.32a5.48,5.48,0,0,1,.69-2.59A6.13,6.13,0,0,1,45.11,77a7.08,7.08,0,0,1,2.17-1.11,7.73,7.73,0,0,1,2.37-.37,8.39,8.39,0,0,1,2.39.38A6.68,6.68,0,0,1,54.21,77a6.34,6.34,0,0,1,1.61,1.88,5.47,5.47,0,0,1,.68,2.62l-.06,10.05-.06,9.24a6.08,6.08,0,0,1-.6,2.75,5.88,5.88,0,0,1-1.57,2A6.84,6.84,0,0,1,52,106.71a8,8,0,0,1-5,0,6.61,6.61,0,0,1-2.16-1.21,6,6,0,0,1-1.52-2,6.07,6.07,0,0,1-.57-2.75q0-2.48,0-4.64ZM29.67,79.88a1.32,1.32,0,0,1,1-.76,13.78,13.78,0,0,0,1.47-.35,3.4,3.4,0,0,0,1-.47,3.29,3.29,0,0,0,.75-.76,13.29,13.29,0,0,0,.75-1.19,1.86,1.86,0,0,1,.88-.78,2.74,2.74,0,0,1,1.11-.24,1.67,1.67,0,0,1,.95.28.91.91,0,0,1,.4.81L37.79,105a1.68,1.68,0,0,1-.69,1.44,2.61,2.61,0,0,1-1.51.51,2.45,2.45,0,0,1-1.51-.46,1.67,1.67,0,0,1-.67-1.47l.13-21.23a4.53,4.53,0,0,0-.06-.92.5.5,0,0,0-.29-.38,1.38,1.38,0,0,0-.68,0l-1.22.2A1.39,1.39,0,0,1,30,82.34a2,2,0,0,1-.56-1.15A2.32,2.32,0,0,1,29.67,79.88Zm15.76,64.91a9.62,9.62,0,0,1-4.45.53A11.31,11.31,0,0,1,37,144q-1.89-1-3.61-2.16a17.53,17.53,0,0,1-2.89,1.86,9.3,9.3,0,0,1-3.05.95,9,9,0,0,1-4.16-.21,5.41,5.41,0,0,1-2.48-1.58,3.77,3.77,0,0,1-.89-2.29,4.21,4.21,0,0,1,.65-2.43,5.6,5.6,0,0,1,2.17-1.94,8.15,8.15,0,0,1,3.65-.86,11.29,11.29,0,0,1,3.95.6,17.68,17.68,0,0,1,3.33,1.59l.08-.08q-1.11-.67-2.11-1.21a8.3,8.3,0,0,0-1.83-.75,3.42,3.42,0,0,1,1.77.46q1.11.54,2.3,1.25A47.19,47.19,0,0,0,36.38,133q1.29-2.36,2.54-4.88t2.36-5q1.11-2.5,2-4.58t1.4-3.59q.54-1.52.67-2.05a2,2,0,0,1,.06.7c0,.3,0,.61-.09.93s-.1.62-.17.93A5.12,5.12,0,0,1,45,116a16.56,16.56,0,0,0,.67-2,13,13,0,0,0,.32-1.42,1.81,1.81,0,0,1,.72.46,5.11,5.11,0,0,1,1.53,2.67,3.66,3.66,0,0,1-.09,1.87q-.17.49-.63,1.77t-1.23,3.06q-.77,1.79-1.79,3.9t-2.27,4.31q-1.25,2.2-2.68,4.33a35.64,35.64,0,0,1-3,3.89q.29.21.53.35a3.85,3.85,0,0,1,.45.31q.78.5,1.89,1.06t2.22,1a16.37,16.37,0,0,0,2.1.75,4,4,0,0,0,1.52.19,3.52,3.52,0,0,1-1.48,0,11.78,11.78,0,0,1-2-.53,18.53,18.53,0,0,1-2.22-1,18.79,18.79,0,0,1-2.17-1.29l-.53-.33-.53-.37-.08.08q1.39,1,2.93,1.91a12.91,12.91,0,0,0,3.26,1.38,10.62,10.62,0,0,0,3.7.29,11.45,11.45,0,0,0,4.29-1.39A13.65,13.65,0,0,1,45.43,144.79Zm3.92-5.16c0-.06,0-.09,0-.1s.08,0,.1.06,0,.06,0,.08S49.38,139.68,49.35,139.63Zm-.13.37c-.11,0-.15,0-.12-.12a.52.52,0,0,1,.13-.25.52.52,0,0,1,.12.23C49.38,139.95,49.34,140,49.23,140Zm.15-.55c-.07.07-.12.06-.14,0a2.8,2.8,0,0,1-1,1,5.6,5.6,0,0,1-1.3.57,5,5,0,0,1-1.17.2,1.73,1.73,0,0,1-.7-.07,5.43,5.43,0,0,0,1.63-.22,5.12,5.12,0,0,0,1.24-.55A4.59,4.59,0,0,0,49.31,139Q49.48,139.34,49.37,139.44Zm52.93-7.27q-.38.82-1.15,2.2a28,28,0,0,1-1.77,2.75,18.23,18.23,0,0,1-2.18,2.5,6.14,6.14,0,0,1-2.34,1.49,6.66,6.66,0,0,1-2.62.42,7.38,7.38,0,0,1-2.9-.66,4.68,4.68,0,0,1-2-1.85,5.46,5.46,0,0,1-.75-2.26A17.76,17.76,0,0,1,84,139a12.93,12.93,0,0,1-3.35,1.79,5.89,5.89,0,0,1-2.88.35,4.41,4.41,0,0,1-3.1-1.85,6.07,6.07,0,0,1-1-3.06c-.4.58-.81,1.15-1.26,1.71a11.87,11.87,0,0,1-1.78,1.82,7.08,7.08,0,0,1-1.86,1.12,2.49,2.49,0,0,1-1.83,0A2.29,2.29,0,0,1,65.52,139a8,8,0,0,1,0-2.39c-.3.42-.61.84-.94,1.25a11.87,11.87,0,0,1-1.78,1.82,7.08,7.08,0,0,1-1.86,1.12,2.49,2.49,0,0,1-1.83,0A2.29,2.29,0,0,1,57.61,139a8,8,0,0,1,0-2.39c-.3.42-.61.84-.94,1.25a12.68,12.68,0,0,1-1.78,1.84A6.4,6.4,0,0,1,53,140.82a2.56,2.56,0,0,1-1.83,0,2.26,2.26,0,0,1-1.17-.91,3.31,3.31,0,0,1-.46-1.49,6.59,6.59,0,0,1-1.78,1.86,4.2,4.2,0,0,1-2.72.66,2,2,0,0,1-1.87-1.19,5.44,5.44,0,0,1-.29-2.72,17,17,0,0,1,.8-3.52A32.52,32.52,0,0,1,45.13,130a22.25,22.25,0,0,1,1.6-2.89,4.15,4.15,0,0,1,1.35-1.45,6.81,6.81,0,0,1,3.48-.74,4.26,4.26,0,0,1,2.44.94,3.34,3.34,0,0,1,.19-.39,3,3,0,0,1,.23-.35q0-.12.76-.12a8,8,0,0,1,1.48.15,3.89,3.89,0,0,1,1.27.46.5.5,0,0,1,.18.8l-1.31,2q-.77,1.19-1.54,2.5t-1.5,2.63q-.73,1.31-1.21,2.42a9.31,9.31,0,0,0-.63,1.89q-.15.78.22,1a1.05,1.05,0,0,0,1.17-.05,6.45,6.45,0,0,0,1.43-1.16,15.82,15.82,0,0,0,1.47-1.8q.73-1,1.35-2t1-1.72l.11-.2q.32-1,.73-2.17,1.13-3.16,2.64-7.11l-3.35-.37a9.88,9.88,0,0,1-1.5-.24c0-.05.14-.11.41-.16l.41-.08a2.77,2.77,0,0,1-.7-.31,3,3,0,0,1-.49-.39l.5-.2a2.38,2.38,0,0,1,.54-.16,4,4,0,0,1-.6-.23q-.31-.15-.68-.35l.49-.1.68-.1.66-.06.43,0a4.65,4.65,0,0,0-.53-.09l-.76-.11-.72-.13a1.12,1.12,0,0,1-.37-.11l1.24-.07,1.28-.07-1,0a1.1,1.1,0,0,1-.64-.19h1.89q1.69,0,4.24-.06.29-.74.77-1.85t.77-1.89a3.88,3.88,0,0,1,.86.29,10.73,10.73,0,0,1,1.17.6,9.45,9.45,0,0,1,1.11.77,2,2,0,0,1,.63.75c-.14.25-.23.42-.27.51a1.41,1.41,0,0,1-.1.21l-.08.12s-.08.14-.17.31a20.39,20.39,0,0,0,2.8-.25l.66-.15.52-1.22q.48-1.11.77-1.89a3.88,3.88,0,0,1,.86.29,10.73,10.73,0,0,1,1.17.6,9.45,9.45,0,0,1,1.11.77,2,2,0,0,1,.63.75c-.14.25-.23.42-.27.51a1.41,1.41,0,0,1-.1.21l-.08.12s-.08.14-.17.31a20.39,20.39,0,0,0,2.8-.25,7.75,7.75,0,0,0,1.61-.46,3.79,3.79,0,0,1-1.78.81,3.7,3.7,0,0,0,1.46-.28q.68-.28.77-.61.29.13.2.82a5.9,5.9,0,0,1-.44,1.54,10.11,10.11,0,0,1-.92,1.68,4.37,4.37,0,0,1-1.26,1.29q-.33,0-4.53-.4-2,4-3.32,6.92t-2,4.81a15.89,15.89,0,0,0-.86,2.92q-.15,1,.14,1.26a1,1,0,0,0,1.15,0,6.18,6.18,0,0,0,1.41-1.14A15,15,0,0,0,72,136q.73-1,1.35-2t1-1.71l.16-.44A13.15,13.15,0,0,1,76.85,128a10,10,0,0,1,3.39-2.57,6.4,6.4,0,0,1,4.12-.43,2.31,2.31,0,0,1,1.56,1.06,3.9,3.9,0,0,1,.54,2.06,8.3,8.3,0,0,1-.47,2.67,13.24,13.24,0,0,1-1.44,3,16.76,16.76,0,0,1-2.36,2.89A15,15,0,0,1,79,139.07a5.75,5.75,0,0,0,2.23-.62,14.24,14.24,0,0,0,2.54-1.59,19.15,19.15,0,0,0,2.53-2.35c.26-.28.5-.58.74-.88l.14-.35a8.25,8.25,0,0,1,2.06-2.87,1.12,1.12,0,0,1,.66-.3.92.92,0,0,1,.53.11,4.73,4.73,0,0,1,.74.73,4.6,4.6,0,0,1,.65.89.56.56,0,0,0-.49-.11.88.88,0,0,0-.45.22.81.81,0,0,1,.37-.1.5.5,0,0,1,.41.15,1.88,1.88,0,0,0-.56.26,1.94,1.94,0,0,0-.48.47,1,1,0,0,1,.39-.2l.39-.08a9.42,9.42,0,0,0-1,.82,5.32,5.32,0,0,0-.89,1.11,5,5,0,0,0-.56,1.36,3,3,0,0,0,0,1.52,2.85,2.85,0,0,0,.73,1.28,3.26,3.26,0,0,0,1.23.79,3.49,3.49,0,0,0,1.46.19,2.87,2.87,0,0,0,1.4-.49,2.93,2.93,0,0,0,1-1.23,4.32,4.32,0,0,0,.3-2.08,5.34,5.34,0,0,0-.73-2.23,6.38,6.38,0,0,0-2.09-2.11,2.38,2.38,0,0,1-.43-.31,2.51,2.51,0,0,0-.43-.31,4.42,4.42,0,0,1-1.59-2.25,2.1,2.1,0,0,1,.42-1.89,4.34,4.34,0,0,1,2.17-1.24,10.06,10.06,0,0,1,3.65-.27,10.16,10.16,0,0,1,1.91.34,3.77,3.77,0,0,1,1.46.75,2.35,2.35,0,0,1,.75,1.28,3.67,3.67,0,0,1-.2,1.93,2.52,2.52,0,0,0,0-.91,2.56,2.56,0,0,1-.4,1,2.31,2.31,0,0,1-.83.76,2.94,2.94,0,0,1-1.18.34,3.06,3.06,0,0,1-1.4-.24q.66,0,.81-.39t-.26-.8a.67.67,0,0,1,.16.54.68.68,0,0,1-.25.45.88.88,0,0,0,.07-.66,1.45,1.45,0,0,0-.35-.54,2.34,2.34,0,0,0-.55-.42,3.75,3.75,0,0,0-.55-.25,2.81,2.81,0,0,0-.95-.15,1,1,0,0,0-.6.18.38.38,0,0,0-.09.45,1.44,1.44,0,0,0,.59.62,4.1,4.1,0,0,0,.49.35,4.45,4.45,0,0,1,.49.35,9.09,9.09,0,0,1,2.54,2.61,5.87,5.87,0,0,1,.89,2.68,29.09,29.09,0,0,0,1.62-2.54q.67-1.19.87-1.52a1.14,1.14,0,0,1,.54-.51.68.68,0,0,1,.56,0,.6.6,0,0,1,.31.43A1.41,1.41,0,0,1,102.31,132.17ZM56.72,119.78q.08-.16.23-.08c.1.06.1.12,0,.21s-.16.1-.23,0S56.67,119.84,56.72,119.78ZM91.6,132.27c.05,0,.08.06.08.1s0,.06-.08.06-.08-.06-.08-.1S91.55,132.27,91.6,132.27Zm-.08-.17a.07.07,0,0,1,.08,0s0,0,0,.06a.07.07,0,0,1-.08,0S91.49,132.13,91.52,132.11Zm.08.08a.77.77,0,0,1,.31-.18c.12,0,.2,0,.23.15s0,.19-.21.16A.62.62,0,0,1,91.6,132.19Zm37.64-4.58a22.77,22.77,0,0,1-7-1.16l.27-43.37a22.8,22.8,0,1,1,6.78,44.53Z"/><path class="cls-2" d="M81.15,137.29a13.71,13.71,0,0,0,1.53-1.45,8.5,8.5,0,0,0,1-1.41,7.16,7.16,0,0,1-.69.89,17.79,17.79,0,0,1-1.35,1.35q-.75.67-1.49,1.27a8.72,8.72,0,0,1-1.28.88,6,6,0,0,0,.83-.49Q80.37,137.93,81.15,137.29Z"/><path class="cls-2" d="M80.22,134.42a12.42,12.42,0,0,0,1-1.27q.41-.61.67-1.07a5.55,5.55,0,0,0,.63-2.1q0-.91-.65-1a2.38,2.38,0,0,0-1.78.75,9.54,9.54,0,0,0-1.74,2.09,12.38,12.38,0,0,0-1.27,2.69,6.1,6.1,0,0,0-.37,2.55q.41-.16.83-.37a4.87,4.87,0,0,0,.74-.45,2.6,2.6,0,0,1-.6.28l-.43.12a9.09,9.09,0,0,0,1.65-1A10.47,10.47,0,0,0,80.22,134.42Z"/><path class="cls-2" d="M59.54,133.58q.56-1,.85-1.66a1.41,1.41,0,0,0,.21-.9.6.6,0,0,0-.31-.43.68.68,0,0,0-.56,0,1.14,1.14,0,0,0-.54.51c-.1.14-.26.42-.47.81q-.58,1.83-.89,3.32c-.1.48-.18.93-.23,1.36.22-.31.43-.61.64-.92Q59,134.58,59.54,133.58Z"/><path class="cls-2" d="M67.44,133.62q.56-1,.85-1.66a1.55,1.55,0,0,0,.21-.95.53.53,0,0,0-.31-.41.75.75,0,0,0-.56.06,1.14,1.14,0,0,0-.54.51c-.09.13-.25.39-.46.75q-.59,1.87-.91,3.38c-.1.48-.18.93-.23,1.36.22-.31.43-.61.64-.92Q66.88,134.63,67.44,133.62Z"/><path class="cls-2" d="M72.63,118.15a6.62,6.62,0,0,1-.95.31l-.11.27A2.33,2.33,0,0,0,72.63,118.15Z"/><path class="cls-2" d="M64.87,120c.08-.08.08-.15,0-.21s-.17,0-.23.08,0,.11,0,.17S64.79,120,64.87,120Z"/><path class="cls-2" d="M64.33,120.57c0,.06,0,.08.06.08s.06,0,.06-.08,0,0-.06,0S64.33,120.55,64.33,120.57Z"/><path class="cls-2" d="M67.18,119.15H65.29a1.1,1.1,0,0,0,.64.19l1,0-1.28.07-1.24.07a1.12,1.12,0,0,0,.37.11l.72.13.76.11a4.65,4.65,0,0,1,.53.09l-.43,0-.66.06-.68.1-.49.1q.37.21.68.35a4,4,0,0,0,.6.23,2.38,2.38,0,0,0-.54.16l-.5.2a3,3,0,0,0,.49.39,2.77,2.77,0,0,0,.7.31l-.41.08c-.27.05-.41.11-.41.16a9.88,9.88,0,0,0,1.5.24l3.35.37-.24.64.9.07.31-.22L71,123l0,.13a4.68,4.68,0,0,0,.94-1.05,10.11,10.11,0,0,0,.92-1.68,5.9,5.9,0,0,0,.44-1.54q.09-.7-.2-.82-.09.33-.77.61a3.57,3.57,0,0,1-.82.23l-.07.18Q68.87,119.16,67.18,119.15Zm1.43,2.36-.54,0-.51-.07-.31,0a4.14,4.14,0,0,1,.82,0l.91.09A1.24,1.24,0,0,1,68.61,121.51Zm1.18-.57-.68,0-.62-.07-.33,0,1.24,0a3,3,0,0,1,.91.11Zm-.63-1.65a2.63,2.63,0,0,1-.91,0l.43,0,.64,0,.62,0,.37,0A5.74,5.74,0,0,1,69.16,119.29Z"/><path class="cls-2" d="M64,120.32a1.46,1.46,0,0,0,.35-.12.54.54,0,0,0-.27-.12q-.18,0-.23.12C63.86,120.31,63.9,120.35,64,120.32Z"/><path class="cls-2" d="M75.35,133.67q.56-1,.85-1.66a1.55,1.55,0,0,0,.21-.95.53.53,0,0,0-.31-.41.75.75,0,0,0-.56.06,1.14,1.14,0,0,0-.54.51q-.17.25-.6,1l0,0a10.67,10.67,0,0,0-.66,3.63c0,.12,0,.24,0,.36l.32-.46Q74.79,134.68,75.35,133.67Z"/><path class="cls-2" d="M89.75,132a1.19,1.19,0,0,0,.17-.8.51.51,0,0,0-.33-.39.71.71,0,0,0-.58.1,1.77,1.77,0,0,0-.62.68,17,17,0,0,1-1.4,2.07,7.06,7.06,0,0,0-.46,2.69c0,.15,0,.3,0,.44.23-.25.46-.5.69-.77A16,16,0,0,0,89.75,132Z"/></svg>